<?xml version="1.0" encoding="UTF-8"?>
<svg viewBox="0 0 1101 965" version="1.1" xmlns="http://www.w3.org/2000/svg" xmlns:xlink="http://www.w3.org/1999/xlink">
    <defs>
        <rect id="bg-s-path" x="4.54747351e-13" y="-1.13686838e-13" width="1101" height="965"></rect>
        <radialGradient cx="50%" cy="5.44253844%" fx="50%" fy="5.44253844%" r="100%" gradientTransform="translate(0.500000,0.054425),scale(0.651883,1.000000),rotate(90.000000),translate(-0.500000,-0.054425)" id="radialGradient">
            <stop stop-color="#FF52E1" offset="0%"></stop>
            <stop stop-color="#52D4FF" offset="27.4123733%"></stop>
            <stop stop-color="#72F7C4" offset="72.6615287%"></stop>
            <stop stop-color="#E2FFBB" offset="100%"></stop>
        </radialGradient>
    </defs>
    <g stroke="none" stroke-width="1" fill="none" fill-rule="evenodd">
        <mask id="bg-s-mask" fill="white">
            <use xlink:href="#bg-s-path"></use>
        </mask>
        <use id="Mask" fill-opacity="0" fill="#D8D8D8" xlink:href="#bg-s-path"></use>
        <path d="M122.339529,364.549827 C161.337932,361.240007 200.426308,358.850137 239.304747,354.460376 C437.845707,332.041596 636.026775,305.89302 834.927628,287.314031 C1010.59539,270.904924 1187.27285,264.665264 1361.2911,303.913128 C1415.73491,316.192459 1469.03906,336.311364 1520.3738,358.580152 C1549.53513,371.229463 1576.70705,392.448308 1599.44029,415.157072 C1653.85411,469.524113 1661.82174,541.200211 1616.73514,603.556816 C1591.76257,638.104936 1558.3525,668.463283 1523.64283,693.671911 C1452.56396,745.289101 1371.08819,777.697337 1288.3228,805.765809 C1030.66942,893.161052 766.088098,947.098116 494.508857,963.977197 C444.133837,967.107026 392.719127,962.63727 342.474068,956.217619 C280.112612,948.248053 243.863391,916.409786 239.774607,874.532066 C235.815785,834.04427 262.377886,802.275999 323.219793,780.39719 C442.264393,737.58952 565.317801,716.66066 691.920154,717.400619 C700.897484,717.450617 723.442614,717.246393 731.945313,722.205078 C778.349609,749.267578 700.897484,772.21875 634.947096,795.28638 C681.283317,790.996613 719.421975,787.986777 757.430673,783.867001 C925.4807,765.627994 1093.47075,745.439093 1255.77248,696.211773 C1321.37297,676.312856 1385.08403,648.554367 1447.00562,618.855984 C1475.38718,605.246724 1500.24978,580.838053 1521.47347,556.719366 C1544.9065,530.080816 1542.26729,506.142119 1512.24621,487.493134 C1478.78616,466.714265 1441.85715,449.045227 1404.08838,438.16582 C1298.82968,407.83747 1190.03203,397.55803 1081.00445,392.678296 C857.211001,382.648842 634.257301,396.808071 411.643499,418.756876 C319.450914,427.846381 227.238335,436.915888 134.885798,443.995502 C108.083768,446.045391 79.8221721,444.975449 53.8598925,438.645793 C-1.94351338,425.026535 -16.4192088,379.069036 20.0299524,335.401414 C32.6561978,320.282237 48.4015156,306.942963 64.8466254,295.993559 C101.095846,271.854873 137.594992,247.676189 175.923595,227.127307 C472.765323,67.9359731 784.222706,-49.0876566 1119.83291,-94.125205 C1197.12992,-104.494641 1275.01676,-115.794025 1353.07355,-100.624851 C1370.3784,-97.2550346 1387.69325,-90.2754146 1402.85874,-81.3159023 C1408.98692,-77.6960993 1409.33682,-64.3168276 1411.91605,-56.5772489 C1349.11472,-59.2171052 1289.70239,-67.7966382 1231.4897,-62.6769169 C1150.34383,-55.5373055 1069.19796,-42.2180306 989.641621,-24.4289989 C688.621135,42.9073356 412.763166,171.24035 149.771371,329.471736 C139.004573,335.951384 129.367439,344.310929 119.200462,351.790521 C109.535156,361.240007 109.535156,364.549827 122.339529,364.549827 Z" fill="url(#radialGradient)" fill-rule="nonzero" mask="url(#bg-s-mask)"></path>
    </g>
</svg>