<?xml version="1.0" encoding="UTF-8"?>
<svg width="60px" height="30px" viewBox="0 0 60 30" version="1.1" xmlns="http://www.w3.org/2000/svg" xmlns:xlink="http://www.w3.org/1999/xlink">
    <g id="Page-1" stroke="none" stroke-width="1" fill="322B33" fill-rule="nonzero">
        <path d="M0.370738636,2.87642045 C0.370738636,2.30113349 0.548648789,1.79829761 0.904474432,1.36789773 C1.26030007,0.937497848 1.73117605,0.602984148 2.31711648,0.364346591 C2.90305691,0.125709034 3.53905907,0.00639204545 4.22514205,0.00639204545 C5.23935166,0.00639204545 6.08628922,0.262071307 6.76598011,0.7734375 C7.44567101,1.28480369 7.86647646,1.95383109 8.02840909,2.78053977 L5.86150568,3.1640625 C5.78053937,2.89985663 5.6303278,2.63885072 5.41086648,2.38103693 C5.19140515,2.12322314 4.84517282,1.98153422 4.37215909,1.95596591 C3.96306614,1.93465898 3.60831116,2.01242809 3.30788352,2.18927557 C3.00745588,2.36612304 2.85724432,2.60369169 2.85724432,2.90198864 C2.85724432,3.18324004 2.99467192,3.39737142 3.26953125,3.5443892 C3.54439058,3.69140699 3.91619084,3.83096525 4.38494318,3.96306818 L5.26065341,4.19957386 C6.21094225,4.48508665 6.90660291,4.90376145 7.34765625,5.4556108 C7.78870959,6.00746015 8.00923295,6.59232646 8.00923295,7.21022727 C8.00923295,7.75142316 7.8558254,8.24360574 7.54900568,8.68678977 C7.24218597,9.12997381 6.8032699,9.48259812 6.23224432,9.7446733 C5.66121874,10.0067485 4.98153803,10.1377841 4.19318182,10.1377841 C3.03408511,10.1377841 2.09233317,9.86079822 1.36789773,9.30681818 C0.643462287,8.75283814 0.187500938,8.04972017 1.42108547e-14,7.19744318 L2.22443182,6.75 C2.3437506,7.08238803 2.53977136,7.38600715 2.8125,7.66086648 C3.08522864,7.93572581 3.49857678,8.08593737 4.05255682,8.11150568 C4.51278639,8.12855122 4.88884797,8.04758612 5.18075284,7.86860795 C5.47265771,7.68962979 5.61860795,7.44886515 5.61860795,7.14630682 C5.61860795,6.8693168 5.45880842,6.64027079 5.13920455,6.45916193 C4.81960067,6.27805307 4.39133791,6.10440424 3.85440341,5.93821023 L2.8828125,5.66335227 C1.98366028,5.38636225 1.3402008,4.98899407 0.952414773,4.4712358 C0.564628743,3.95347752 0.370738636,3.42187773 0.370738636,2.87642045 Z M15.743608,5.59943182 L15.743608,0.134232955 L18.1853693,0.134232955 L18.1853693,9.95241477 L15.890625,9.95241477 L15.890625,8.7890625 L15.7883523,8.7890625 C15.5241464,9.15128022 15.1598035,9.45703 14.6953125,9.70632102 C14.2308215,9.95561204 13.6853725,10.0802557 13.0589489,10.0802557 C12.5347985,10.0802557 12.02344,9.95667737 11.524858,9.70951705 C11.0262759,9.46235672 10.6150584,9.06285787 10.2911932,8.51100852 C9.96732793,7.95915917 9.80539773,7.22514663 9.80539773,6.30894886 L9.80539773,0.134232955 L12.2471591,0.134232955 L12.2471591,6.23863636 C12.2471591,6.83096887 12.404828,7.2826689 12.7201705,7.59375 C13.0355129,7.9048311 13.4318158,8.06036932 13.9090909,8.06036932 C14.463071,8.06036932 14.9073137,7.84304195 15.2418324,7.40838068 C15.5763511,6.97371942 15.743608,6.37074249 15.743608,5.59943182 Z M20.1796875,13.634233 L20.1796875,0.134232955 L22.6022727,0.134232955 L22.6086648,1.22088068 L22.7237216,1.22088068 C22.8899156,0.888492656 23.1764894,0.602984148 23.5834517,0.364346591 C23.990414,0.125709034 24.5007072,0.00639204545 25.1143466,0.00639204545 C25.8430434,0.00639204545 26.5110055,0.197086161 27.1182528,0.578480114 C27.7255002,0.959874066 28.2102255,1.5244991 28.5724432,2.27237216 C28.9346609,3.02024522 29.115767,3.94601721 29.115767,5.04971591 C29.115767,6.14063045 28.9389222,7.06320646 28.5852273,7.81747159 C28.2315323,8.57173673 27.753199,9.1448844 27.1502131,9.53693182 C26.5472271,9.92897923 25.872873,10.125 25.1271307,10.125 C24.5177526,10.125 24.0063941,10.0078137 23.5930398,9.7734375 C23.1796875,9.53906133 22.8899156,9.25355282 22.7237216,8.91690341 L22.6214489,8.91690341 L22.6214489,13.634233 L20.1796875,13.634233 Z M26.7954545,5.04332386 C26.7954545,4.12286472 26.6047604,3.38459085 26.2233665,2.82848011 C25.8419725,2.27236938 25.2784128,1.99431818 24.5326705,1.99431818 C23.7656212,1.99431818 23.2095188,2.28621867 22.8643466,2.87002841 C22.5191744,3.45383815 22.3465909,4.18039338 22.3465909,5.04971591 C22.3465909,5.62926426 22.4222294,6.15234142 22.5735085,6.61896307 C22.7247877,7.08558472 22.9602257,7.45525432 23.2798295,7.72798295 C23.5994334,8.00071159 24.0170429,8.13707386 24.5326705,8.13707386 C25.2784128,8.13707386 25.8419725,7.85263069 26.2233665,7.2837358 C26.6047604,6.71484091 26.7954545,5.9680444 26.7954545,5.04332386 Z M35.1370739,10.1377841 C34.1484326,10.1377841 33.3004297,9.93004469 32.5930398,9.51455966 C31.8856499,9.09907463 31.3423314,8.51846964 30.9630682,7.77272727 C30.5838049,7.02698491 30.3941761,6.15980608 30.3941761,5.17116477 C30.3941761,4.16973931 30.5838049,3.28018855 30.9630682,2.5024858 C31.3423314,1.72478304 31.8781926,1.11434881 32.5706676,0.671164773 C33.2631427,0.227980739 34.0823816,0.00639204545 35.0284091,0.00639204545 C35.8551178,0.00639204545 36.5997836,0.180040877 37.262429,0.52734375 C37.9250743,0.874646623 38.4492168,1.39772378 38.8348722,2.09659091 C39.2205275,2.79545804 39.4133523,3.67329017 39.4133523,4.73011364 L39.4133523,5.75284091 L32.7464489,5.75284091 C32.8274152,6.49858327 33.0639185,7.08238425 33.4559659,7.50426136 C33.8480133,7.92613847 34.4019851,8.13707386 35.1178977,8.13707386 C35.7102302,8.13707386 36.1597996,8.00177692 36.4666193,7.73117898 C36.773439,7.46058103 36.9928971,7.13991663 37.125,6.76917614 L39.3110795,7.36363636 C39.1917608,7.81108178 38.9605841,8.24786719 38.6175426,8.67400568 C38.2745011,9.10014418 37.8153438,9.45063783 37.2400568,9.72549716 C36.6647699,10.0003565 35.9637825,10.1377841 35.1370739,10.1377841 Z M35.015625,1.99431818 C34.4360766,1.99431818 33.9577434,2.17542433 33.5806108,2.53764205 C33.2034782,2.89985977 32.9488643,3.40908763 32.8167614,4.06534091 L37.0994318,4.06534091 C37.0994318,3.47726979 36.9172603,2.98508721 36.5529119,2.58877841 C36.1885635,2.19246961 35.6761397,1.99431818 35.015625,1.99431818 Z M46.2848011,0.0511363636 C46.2848011,0.288211707 46.2848011,0.466018214 46.2848011,0.584555886 C46.2848011,0.981643214 46.2848011,1.57727421 46.2848011,2.37144886 C46.2080962,2.35866471 46.1079552,2.35014207 45.984375,2.34588068 C45.8607948,2.3416193 45.7414778,2.33948864 45.6264205,2.33948864 C44.9786899,2.33948864 44.4620048,2.53657473 44.0763494,2.93075284 C43.6906941,3.32493095 43.4957387,3.77982697 43.4914773,4.29545455 L43.4914773,9.95241477 L41.0497159,9.95241477 L41.0497159,0.134232955 L43.4914773,0.134232955 L43.4914773,1.54048295 L43.5745739,1.54048295 C43.7151996,1.04190092 43.9921854,0.660512685 44.4055398,0.396306818 C44.8188941,0.132100952 45.2578102,1.42108547e-14 45.7223011,1.42108547e-14 C45.8117902,1.42108547e-14 45.9087353,0.00319599077 46.0131392,0.00958806818 C46.1175431,0.0159801456 46.2080962,0.0298294389 46.2848011,0.0511363636 Z"></path>
        <path d="M40.5012784,16.2762784 C41.2299752,16.2762784 41.8979373,16.4669725 42.5051847,16.8483665 C43.112432,17.2297604 43.5971573,17.7943855 43.959375,18.5422585 C44.3215927,19.2901316 44.5026989,20.2159036 44.5026989,21.3196023 C44.5026989,22.4105168 44.325854,23.3330928 43.9721591,24.087358 C43.6184641,24.8416231 43.1401309,25.4147708 42.5371449,25.8068182 C41.9341589,26.1988656 41.2598049,26.3948864 40.5140625,26.3948864 C39.9046845,26.3948864 39.3933259,26.2777 38.9799716,26.0433239 C38.5666193,25.8089477 38.2768474,25.5234392 38.1106534,25.1867898 L38.0083807,25.1867898 L38.0083807,29.9041193 L35.5666193,29.9041193 L35.5666193,16.4041193 L37.9892045,16.4041193 L37.9955966,17.490767 L38.1106534,17.490767 C38.2768474,17.158379 38.5634213,16.8728705 38.9703835,16.634233 C39.3773458,16.3955954 39.887639,16.2762784 40.5012784,16.2762784 Z M10.075142,16.2762784 C11.0893517,16.2762784 11.9362892,16.5319577 12.6159801,17.0433239 C13.295671,17.5546901 13.7164765,18.2237175 13.8784091,19.0504261 L11.7115057,19.4339489 C11.6305394,19.169743 11.4803278,18.9087371 11.2608665,18.6509233 C11.0414052,18.3931095 10.6951728,18.2514206 10.2221591,18.2258523 C9.81306614,18.2045453 9.45831116,18.2823145 9.15788352,18.4591619 C8.85745588,18.6360094 8.70724432,18.8735781 8.70724432,19.171875 C8.70724432,19.4531264 8.84467192,19.6672578 9.11953125,19.8142756 C9.39439058,19.9612933 9.76619084,20.1008516 10.2349432,20.2329545 L11.1106534,20.4694602 C12.0609423,20.754973 12.7566029,21.1736478 13.1976562,21.7254972 C13.6387096,22.2773465 13.859233,22.8622128 13.859233,23.4801136 C13.859233,24.0213095 13.7058254,24.5134921 13.3990057,24.9566761 C13.092186,25.3998602 12.6532699,25.7524845 12.0822443,26.0145597 C11.5112187,26.2766348 10.831538,26.4076705 10.0431818,26.4076705 C8.88408511,26.4076705 7.94233317,26.1306846 7.21789773,25.5767045 C6.49346229,25.0227245 6.03750094,24.3196065 5.85,23.4673295 L8.07443182,23.0198864 C8.1937506,23.3522744 8.38977136,23.6558935 8.6625,23.9307528 C8.93522864,24.2056122 9.34857678,24.3558237 9.90255682,24.381392 C10.3627864,24.3984376 10.738848,24.3174725 11.0307528,24.1384943 C11.3226577,23.9595162 11.468608,23.7187515 11.468608,23.4161932 C11.468608,23.1392032 11.3088084,22.9101572 10.9892045,22.7290483 C10.6696007,22.5479394 10.2413379,22.3742906 9.70440341,22.2080966 L8.7328125,21.9332386 C7.83366028,21.6562486 7.1902008,21.2588804 6.80241477,20.7411222 C6.41462874,20.2233639 6.22073864,19.6917641 6.22073864,19.1463068 C6.22073864,18.5710199 6.39864879,18.068184 6.75447443,17.6377841 C7.11030007,17.2073842 7.58117605,16.8728705 8.16711648,16.634233 C8.75305691,16.3955954 9.38905907,16.2762784 10.075142,16.2762784 Z M54.8514205,16.2762784 C55.6781291,16.2762784 56.422795,16.4499272 57.0854403,16.7972301 C57.7480857,17.144533 58.2722282,17.6676101 58.6578835,18.3664773 C59.0435389,19.0653444 59.2363636,19.9431765 59.2363636,21 L59.2363636,22.0227273 L52.5694602,22.0227273 C52.6504265,22.7684696 52.8869299,23.3522706 53.2789773,23.7741477 C53.6710247,24.1960248 54.2249964,24.4069602 54.9409091,24.4069602 C55.5332416,24.4069602 55.982811,24.2716633 56.2896307,24.0010653 C56.5964504,23.7304674 56.8159084,23.409803 56.9480114,23.0390625 L59.1340909,23.6335227 C59.0147721,24.0809681 58.7835955,24.5177536 58.440554,24.943892 C58.0975125,25.3700305 57.6383551,25.7205242 57.0630682,25.9953835 C56.4877812,26.2702429 55.7867939,26.4076705 54.9600852,26.4076705 C53.9714439,26.4076705 53.123441,26.1999311 52.4160511,25.784446 C51.7086612,25.368961 51.1653428,24.788356 50.7860795,24.0426136 C50.4068163,23.2968713 50.2171875,22.4296924 50.2171875,21.4410511 C50.2171875,20.4396257 50.4068163,19.5500749 50.7860795,18.7723722 C51.1653428,17.9946694 51.7012039,17.3842352 52.393679,16.9410511 C53.086154,16.4978671 53.905393,16.2762784 54.8514205,16.2762784 Z M18.1610795,17.4041193 L18.1610795,26.2223011 L15.7193182,26.2223011 L15.7193182,17.4041193 L18.1610795,17.4041193 Z M30.5872159,16.2762784 C31.141196,16.2762784 31.6429665,16.3987914 32.0925426,16.643821 C32.5421187,16.8888507 32.901135,17.2830229 33.1696023,17.8263494 C33.4380695,18.369676 33.5723011,19.0909046 33.5723011,19.9900568 L33.5723011,26.2223011 L31.1305398,26.2223011 L31.1305398,19.9708807 C31.1305398,19.3359343 30.9781975,18.8980836 30.6735085,18.6573153 C30.3688195,18.4165471 30.0332405,18.2961648 29.6667614,18.2961648 C29.1724407,18.2961648 28.7878565,18.4506377 28.5129972,18.7595881 C28.2381378,19.0685385 28.1007102,19.5191732 28.1007102,20.1115057 L28.1007102,26.2223011 L25.7164773,26.2223011 L25.7164773,19.9900568 C25.7164773,19.3892015 25.576919,18.9566775 25.2977983,18.6924716 C25.0186776,18.4282657 24.6617919,18.2961648 24.2271307,18.2961648 C23.809515,18.2961648 23.4441067,18.4495723 23.1308949,18.756392 C22.8176831,19.0632118 22.6610795,19.5276958 22.6610795,20.149858 L22.6610795,26.2223011 L20.2193182,26.2223011 L20.2193182,16.4041193 L22.6099432,16.4041193 L22.6099432,17.6697443 L22.6930398,17.6697443 C22.9274159,17.2947424 23.259799,16.9687514 23.6901989,16.6917614 C24.1205987,16.4147713 24.6404799,16.2762784 25.249858,16.2762784 C25.8464518,16.2762784 26.3514184,16.4126407 26.7647727,16.6853693 C27.1781271,16.958098 27.4892035,17.3203102 27.6980114,17.772017 L27.8002841,17.772017 C28.0218761,17.3714469 28.3776964,17.0220185 28.8677557,16.7237216 C29.357815,16.4254246 29.9309626,16.2762784 30.5872159,16.2762784 Z M48.5808239,13.131392 L48.5808239,26.2223011 L46.1390625,26.2223011 L46.1390625,13.131392 L48.5808239,13.131392 Z M39.9196023,18.2642045 C39.152553,18.2642045 38.5964506,18.556105 38.2512784,19.1399148 C37.9061062,19.7237245 37.7335227,20.4502797 37.7335227,21.3196023 C37.7335227,21.8991506 37.8091612,22.4222278 37.9604403,22.8888494 C38.1117195,23.3554711 38.3471575,23.7251407 38.6667614,23.9978693 C38.9863652,24.270598 39.4039747,24.4069602 39.9196023,24.4069602 C40.6653446,24.4069602 41.2289043,24.122517 41.6102983,23.5536222 C41.9916922,22.9847273 42.1823864,22.2379308 42.1823864,21.3132102 C42.1823864,20.3927511 41.9916922,19.6544772 41.6102983,19.0983665 C41.2289043,18.5422557 40.6653446,18.2642045 39.9196023,18.2642045 Z M54.8386364,18.2642045 C54.259088,18.2642045 53.7807547,18.4453107 53.4036222,18.8075284 C53.0264896,19.1697461 52.7718757,19.678974 52.6397727,20.3352273 L52.6397727,20.3352273 L56.9224432,20.3352273 C56.9224432,19.7471562 56.7402717,19.2549736 56.3759233,18.8586648 C56.0115749,18.462356 55.499151,18.2642045 54.8386364,18.2642045 Z M16.9465909,12.9524148 C17.3471611,12.9524148 17.6784788,13.0925972 17.940554,13.3729662 C18.2026292,13.6533353 18.3336648,13.9781482 18.3336648,14.3474148 C18.3336648,14.7303579 18.2026292,15.0585899 17.940554,15.3321207 C17.6784788,15.6056514 17.3471611,15.7424148 16.9465909,15.7424148 C16.5460207,15.7424148 16.211507,15.6056514 15.9430398,15.3321207 C15.6745725,15.0585899 15.5403409,14.7303579 15.5403409,14.3474148 C15.5403409,13.9781482 15.6745725,13.6533353 15.9430398,13.3729662 C16.211507,13.0925972 16.5460207,12.9524148 16.9465909,12.9524148 Z"></path>
    </g>
</svg>