<?xml version="1.0" encoding="UTF-8"?>
<svg width="101px" height="18px" viewBox="0 0 101 18" version="1.1" xmlns="http://www.w3.org/2000/svg" xmlns:xlink="http://www.w3.org/1999/xlink">
    <g stroke="none" stroke-width="1" fill="#322B33" fill-rule="nonzero">
        <path d="M0.370738636,6.19389205 C0.370738636,5.61860508 0.548648789,5.1157692 0.904474432,4.68536932 C1.26030007,4.25496944 1.73117605,3.92045574 2.31711648,3.68181818 C2.90305691,3.44318063 3.53905907,3.32386364 4.22514205,3.32386364 C5.23935166,3.32386364 6.08628922,3.5795429 6.76598011,4.09090909 C7.44567101,4.60227528 7.86647646,5.27130268 8.02840909,6.09801136 L5.86150568,6.48153409 C5.78053937,6.21732822 5.6303278,5.95632231 5.41086648,5.69850852 C5.19140515,5.44069473 4.84517282,5.29900581 4.37215909,5.2734375 C3.96306614,5.25213058 3.60831116,5.32989968 3.30788352,5.50674716 C3.00745588,5.68359463 2.85724432,5.92116328 2.85724432,6.21946023 C2.85724432,6.50071163 2.99467192,6.71484301 3.26953125,6.8618608 C3.54439058,7.00887858 3.91619084,7.14843684 4.38494318,7.28053977 L5.26065341,7.51704545 C6.21094225,7.80255825 6.90660291,8.22123304 7.34765625,8.77308239 C7.78870959,9.32493174 8.00923295,9.90979805 8.00923295,10.5276989 C8.00923295,11.0688948 7.8558254,11.5610773 7.54900568,12.0042614 C7.24218597,12.4474454 6.8032699,12.8000697 6.23224432,13.0621449 C5.66121874,13.3242201 4.98153803,13.4552557 4.19318182,13.4552557 C3.03408511,13.4552557 2.09233317,13.1782698 1.36789773,12.6242898 C0.643462287,12.0703097 0.187500937,11.3671918 -3.55271368e-14,10.5149148 L2.22443182,10.0674716 C2.3437506,10.3998596 2.53977136,10.7034787 2.8125,10.9783381 C3.08522864,11.2531974 3.49857678,11.403409 4.05255682,11.4289773 C4.51278639,11.4460228 4.88884797,11.3650577 5.18075284,11.1860795 C5.47265771,11.0071014 5.61860795,10.7663367 5.61860795,10.4637784 C5.61860795,10.1867884 5.45880842,9.95774238 5.13920455,9.77663352 C4.81960067,9.59552466 4.39133791,9.42187583 3.85440341,9.25568182 L2.8828125,8.98082386 C1.98366028,8.70383384 1.3402008,8.30646566 0.952414773,7.78870739 C0.564628743,7.27094912 0.370738636,6.73934932 0.370738636,6.19389205 Z M15.743608,8.91690341 L15.743608,3.45170455 L18.1853693,3.45170455 L18.1853693,13.2698864 L15.890625,13.2698864 L15.890625,12.1065341 L15.7883523,12.1065341 C15.5241464,12.4687518 15.1598035,12.7745016 14.6953125,13.0237926 C14.2308215,13.2730836 13.6853725,13.3977273 13.0589489,13.3977273 C12.5347985,13.3977273 12.02344,13.274149 11.524858,13.0269886 C11.0262759,12.7798283 10.6150584,12.3803295 10.2911932,11.8284801 C9.96732793,11.2766308 9.80539773,10.5426182 9.80539773,9.62642045 L9.80539773,3.45170455 L12.2471591,3.45170455 L12.2471591,9.55610795 C12.2471591,10.1484405 12.404828,10.6001405 12.7201705,10.9112216 C13.0355129,11.2223027 13.4318158,11.3778409 13.9090909,11.3778409 C14.463071,11.3778409 14.9073137,11.1605135 15.2418324,10.7258523 C15.5763511,10.291191 15.743608,9.68821408 15.743608,8.91690341 Z M20.1796875,16.9517045 L20.1796875,3.45170455 L22.6022727,3.45170455 L22.6086648,4.53835227 L22.7237216,4.53835227 C22.8899156,4.20596425 23.1764894,3.92045574 23.5834517,3.68181818 C23.990414,3.44318063 24.5007072,3.32386364 25.1143466,3.32386364 C25.8430434,3.32386364 26.5110055,3.51455775 27.1182528,3.8959517 C27.7255002,4.27734566 28.2102255,4.84197069 28.5724432,5.58984375 C28.9346609,6.33771681 29.115767,7.2634888 29.115767,8.3671875 C29.115767,9.45810205 28.9389222,10.380678 28.5852273,11.1349432 C28.2315323,11.8892083 27.753199,12.462356 27.1502131,12.8544034 C26.5472271,13.2464508 25.872873,13.4424716 25.1271307,13.4424716 C24.5177526,13.4424716 24.0063941,13.3252853 23.5930398,13.0909091 C23.1796875,12.8565329 22.8899156,12.5710244 22.7237216,12.234375 L22.6214489,12.234375 L22.6214489,16.9517045 L20.1796875,16.9517045 Z M26.7954545,8.36079545 C26.7954545,7.44033631 26.6047604,6.70206244 26.2233665,6.1459517 C25.8419725,5.58984097 25.2784128,5.31178977 24.5326705,5.31178977 C23.7656212,5.31178977 23.2095188,5.60369026 22.8643466,6.1875 C22.5191744,6.77130974 22.3465909,7.49786497 22.3465909,8.3671875 C22.3465909,8.94673585 22.4222294,9.46981301 22.5735085,9.93643466 C22.7247877,10.4030563 22.9602257,10.7727259 23.2798295,11.0454545 C23.5994334,11.3181832 24.0170429,11.4545455 24.5326705,11.4545455 C25.2784128,11.4545455 25.8419725,11.1701023 26.2233665,10.6012074 C26.6047604,10.0323125 26.7954545,9.28551599 26.7954545,8.36079545 Z M35.1370739,13.4552557 C34.1484326,13.4552557 33.3004297,13.2475163 32.5930398,12.8320312 C31.8856499,12.4165462 31.3423314,11.8359412 30.9630682,11.0901989 C30.5838049,10.3444565 30.3941761,9.47727767 30.3941761,8.48863636 C30.3941761,7.4872109 30.5838049,6.59766014 30.9630682,5.81995739 C31.3423314,5.04225463 31.8781926,4.4318204 32.5706676,3.98863636 C33.2631427,3.54545233 34.0823816,3.32386364 35.0284091,3.32386364 C35.8551178,3.32386364 36.5997836,3.49751247 37.262429,3.84481534 C37.9250743,4.19211821 38.4492168,4.71519537 38.8348722,5.4140625 C39.2205275,6.11292963 39.4133523,6.99076176 39.4133523,8.04758523 L39.4133523,9.0703125 L32.7464489,9.0703125 C32.8274152,9.81605487 33.0639185,10.3998558 33.4559659,10.821733 C33.8480133,11.2436101 34.4019851,11.4545455 35.1178977,11.4545455 C35.7102302,11.4545455 36.1597996,11.3192485 36.4666193,11.0486506 C36.773439,10.7780526 36.9928971,10.4573882 37.125,10.0866477 L39.3110795,10.681108 C39.1917608,11.1285534 38.9605841,11.5653388 38.6175426,11.9914773 C38.2745011,12.4176158 37.8153438,12.7681094 37.2400568,13.0429688 C36.6647699,13.3178281 35.9637825,13.4552557 35.1370739,13.4552557 Z M35.015625,5.31178977 C34.4360766,5.31178977 33.9577434,5.49289592 33.5806108,5.85511364 C33.2034782,6.21733136 32.9488643,6.72655922 32.8167614,7.3828125 L37.0994318,7.3828125 C37.0994318,6.79474138 36.9172603,6.3025588 36.5529119,5.90625 C36.1885635,5.5099412 35.6761397,5.31178977 35.015625,5.31178977 Z M46.2848011,3.36860795 C46.2848011,3.6056833 46.2848011,3.78348981 46.2848011,3.90202748 C46.2848011,4.29911481 46.2848011,4.8947458 46.2848011,5.68892045 C46.2080962,5.6761363 46.1079552,5.66761366 45.984375,5.66335227 C45.8607948,5.65909089 45.7414778,5.65696023 45.6264205,5.65696023 C44.9786899,5.65696023 44.4620048,5.85404632 44.0763494,6.24822443 C43.6906941,6.64240254 43.4957387,7.09729856 43.4914773,7.61292614 L43.4914773,13.2698864 L41.0497159,13.2698864 L41.0497159,3.45170455 L43.4914773,3.45170455 L43.4914773,4.85795455 L43.5745739,4.85795455 C43.7151996,4.35937251 43.9921854,3.97798428 44.4055398,3.71377841 C44.8188941,3.44957254 45.2578102,3.31747159 45.7223011,3.31747159 C45.8117902,3.31747159 45.9087353,3.32066758 46.0131392,3.32705966 C46.1175431,3.33345174 46.2080962,3.34730103 46.2848011,3.36860795 Z M47.5056818,6.19389205 C47.5056818,5.61860508 47.683592,5.1157692 48.0394176,4.68536932 C48.3952433,4.25496944 48.8661192,3.92045574 49.4520597,3.68181818 C50.0380001,3.44318063 50.6740023,3.32386364 51.3600852,3.32386364 C52.3742948,3.32386364 53.2212324,3.5795429 53.9009233,4.09090909 C54.5806142,4.60227528 55.0014196,5.27130268 55.1633523,6.09801136 L52.9964489,6.48153409 C52.9154825,6.21732822 52.765271,5.95632231 52.5458097,5.69850852 C52.3263483,5.44069473 51.980116,5.29900581 51.5071023,5.2734375 C51.0980093,5.25213058 50.7432543,5.32989968 50.4428267,5.50674716 C50.1423991,5.68359463 49.9921875,5.92116328 49.9921875,6.21946023 C49.9921875,6.50071163 50.1296151,6.71484301 50.4044744,6.8618608 C50.6793338,7.00887858 51.051134,7.14843684 51.5198864,7.28053977 L52.3955966,7.51704545 C53.3458854,7.80255825 54.0415461,8.22123304 54.4825994,8.77308239 C54.9236528,9.32493174 55.1441761,9.90979805 55.1441761,10.5276989 C55.1441761,11.0688948 54.9907686,11.5610773 54.6839489,12.0042614 C54.3771291,12.4474454 53.9382131,12.8000697 53.3671875,13.0621449 C52.7961619,13.3242201 52.1164812,13.4552557 51.328125,13.4552557 C50.1690283,13.4552557 49.2272763,13.1782698 48.5028409,12.6242898 C47.7784055,12.0703097 47.3224441,11.3671918 47.1349432,10.5149148 L49.359375,10.0674716 C49.4786938,10.3998596 49.6747145,10.7034787 49.9474432,10.9783381 C50.2201718,11.2531974 50.63352,11.403409 51.1875,11.4289773 C51.6477296,11.4460228 52.0237912,11.3650577 52.315696,11.1860795 C52.6076009,11.0071014 52.7535511,10.7663367 52.7535511,10.4637784 C52.7535511,10.1867884 52.5937516,9.95774238 52.2741477,9.77663352 C51.9545439,9.59552466 51.5262811,9.42187583 50.9893466,9.25568182 L50.0177557,8.98082386 C49.1186035,8.70383384 48.475144,8.30646566 48.087358,7.78870739 C47.6995719,7.27094912 47.5056818,6.73934932 47.5056818,6.19389205 Z M58.2315341,2.79 C57.8309639,2.79 57.4964502,2.65323666 57.227983,2.37970588 C56.9595157,2.1061751 56.8252841,1.77794309 56.8252841,1.395 C56.8252841,1.02573345 56.9595157,0.700920519 57.227983,0.420551471 C57.4964502,0.140182422 57.8309639,0 58.2315341,0 C58.6321043,0 58.963422,0.140182422 59.2254972,0.420551471 C59.4875723,0.700920519 59.618608,1.02573345 59.618608,1.395 C59.618608,1.77794309 59.4875723,2.1061751 59.2254972,2.37970588 C58.963422,2.65323666 58.6321043,2.79 58.2315341,2.79 Z M59.4460227,4.45170455 L59.4460227,13.2698864 L57.0042614,13.2698864 L57.0042614,4.45170455 L59.4460227,4.45170455 Z M69.3856534,7.15909091 L69.3856534,13.2698864 L67.0014205,13.2698864 L67.0014205,7.03764205 C67.0014205,6.43678677 66.8618622,6.00426268 66.5827415,5.74005682 C66.3036208,5.47585095 65.9467351,5.34375 65.5120739,5.34375 C65.0944581,5.34375 64.7290499,5.49715756 64.4158381,5.80397727 C64.1026263,6.11079699 63.9460227,6.57528098 63.9460227,7.19744318 L63.9460227,13.2698864 L61.5042614,13.2698864 L61.5042614,3.45170455 L63.8948864,3.45170455 L63.8948864,4.71732955 L63.977983,4.71732955 C64.2123591,4.34232767 64.5447422,4.01633661 64.975142,3.73934659 C65.4055419,3.46235657 65.9254231,3.32386364 66.5348011,3.32386364 C67.131395,3.32386364 67.6363616,3.46022591 68.0497159,3.73295455 C68.4630702,4.00568318 68.7741467,4.36789547 68.9829545,4.81960227 L69.0852273,4.81960227 C69.3068193,4.41903209 69.6626396,4.06960376 70.1526989,3.77130682 C70.6427581,3.47300987 71.2159058,3.32386364 71.8721591,3.32386364 C72.4261391,3.32386364 72.9279097,3.44637662 73.3774858,3.69140625 C73.8270619,3.93643588 74.1860782,4.33060808 74.4545455,4.87393466 C74.7230127,5.41726124 74.8572443,6.13848982 74.8572443,7.03764205 L74.8572443,13.2698864 L72.415483,13.2698864 L72.415483,7.01846591 C72.415483,6.38351955 72.2631407,5.94566882 71.9584517,5.70490057 C71.6537627,5.46413232 71.3181837,5.34375 70.9517045,5.34375 C70.4573839,5.34375 70.0727997,5.49822289 69.7979403,5.8071733 C69.523081,6.1161237 69.3856534,6.5667584 69.3856534,7.15909091 Z M76.8515625,16.9517045 L76.8515625,3.45170455 L79.2741477,3.45170455 L79.2805398,4.53835227 L79.3955966,4.53835227 C79.5617906,4.20596425 79.8483644,3.92045574 80.2553267,3.68181818 C80.662289,3.44318063 81.1725822,3.32386364 81.7862216,3.32386364 C82.5149184,3.32386364 83.1828805,3.51455775 83.7901278,3.8959517 C84.3973752,4.27734566 84.8821005,4.84197069 85.2443182,5.58984375 C85.6065359,6.33771681 85.787642,7.2634888 85.787642,8.3671875 C85.787642,9.45810205 85.6107972,10.380678 85.2571023,11.1349432 C84.9034073,11.8892083 84.425074,12.462356 83.8220881,12.8544034 C83.2191021,13.2464508 82.544748,13.4424716 81.7990057,13.4424716 C81.1896276,13.4424716 80.6782691,13.3252853 80.2649148,13.0909091 C79.8515625,12.8565329 79.5617906,12.5710244 79.3955966,12.234375 L79.2933239,12.234375 L79.2933239,16.9517045 L76.8515625,16.9517045 Z M83.4673295,8.36079545 C83.4673295,7.44033631 83.2766354,6.70206244 82.8952415,6.1459517 C82.5138475,5.58984097 81.9502878,5.31178977 81.2045455,5.31178977 C80.4374962,5.31178977 79.8813938,5.60369026 79.5362216,6.1875 C79.1910494,6.77130974 79.0184659,7.49786497 79.0184659,8.3671875 C79.0184659,8.94673585 79.0941044,9.46981301 79.2453835,9.93643466 C79.3966627,10.4030563 79.6321007,10.7727259 79.9517045,11.0454545 C80.2713084,11.3181832 80.6889179,11.4545455 81.2045455,11.4545455 C81.9502878,11.4545455 82.5138475,11.1701023 82.8952415,10.6012074 C83.2766354,10.0323125 83.4673295,9.28551599 83.4673295,8.36079545 Z M89.865767,0.178977273 L89.865767,13.2698864 L87.4240057,13.2698864 L87.4240057,0.178977273 L89.865767,0.178977273 Z M96.1363636,3.32386364 C96.9630723,3.32386364 97.7077382,3.49751247 98.3703835,3.84481534 C99.0330289,4.19211821 99.5571714,4.71519537 99.9428267,5.4140625 C100.328482,6.11292963 100.521307,6.99076176 100.521307,8.04758523 L100.521307,9.0703125 L93.8544034,9.0703125 C93.9353697,9.81605487 94.171873,10.3998558 94.5639205,10.821733 C94.9559679,11.2436101 95.5099396,11.4545455 96.2258523,11.4545455 C96.8181848,11.4545455 97.2677541,11.3192485 97.5745739,11.0486506 C97.8813936,10.7780526 98.1008516,10.4573882 98.2329545,10.0866477 L100.419034,10.681108 C100.299715,11.1285534 100.068539,11.5653388 99.7254972,11.9914773 C99.3824557,12.4176158 98.9232983,12.7681094 98.3480114,13.0429688 C97.7727244,13.3178281 97.0717371,13.4552557 96.2450284,13.4552557 C95.2563871,13.4552557 94.4083842,13.2475163 93.7009943,12.8320312 C92.9936044,12.4165462 92.450286,11.8359412 92.0710227,11.0901989 C91.6917595,10.3444565 91.5021307,9.47727767 91.5021307,8.48863636 C91.5021307,7.4872109 91.6917595,6.59766014 92.0710227,5.81995739 C92.450286,5.04225463 92.9861471,4.4318204 93.6786222,3.98863636 C94.3710972,3.54545233 95.1903362,3.32386364 96.1363636,3.32386364 Z M96.1235795,5.31178977 C95.5440312,5.31178977 95.0656979,5.49289592 94.6885653,5.85511364 C94.3114328,6.21733136 94.0568188,6.72655922 93.9247159,7.3828125 L93.9247159,7.3828125 L98.2073864,7.3828125 C98.2073864,6.79474138 98.0252149,6.3025588 97.6608665,5.90625 C97.2965181,5.5099412 96.7840942,5.31178977 96.1235795,5.31178977 Z"></path>
    </g>
</svg>