<?xml version="1.0" encoding="utf-8"?>
<svg version="1.1" id="Calque_1" xmlns="http://www.w3.org/2000/svg" x="0" y="0" viewBox="0 0 60 30" xml:space="preserve">
  <style>
    .st0{fill:#1e140c}
  </style>
  <g id="Brand">
    <g id="logo-supersimple-vertical">
      <path id="simple" className="st0" d="M6 18.9c0-.6.2-1.1.6-1.5a4 4 0 011.5-1A4 4 0 0110 16c.7 0 1.4.1 2 .4s1 .6 1.4 1.1c.4.5.6 1 .7 1.6l-2.6.4-.4-.7-.8-.4-.8.1c-.4.1-.5.2-.5.5s.1.4.4.5l1 .3.6.2c1 .3 1.7.8 2.2 1.4.5.6.7 1.2.7 1.9 0 .6-.2 1.1-.5 1.5-.3.4-.8.8-1.3 1-.6.3-1.3.4-2 .4a4.6 4.6 0 01-3.6-1.5c-.4-.5-.6-1-.7-1.7l2.7-.4.5.8c.3.3.5.4 1 .4l.9-.1c.3-.1.4-.3.4-.5 0-.3-.2-.5-.6-.6l-.4-.2-1-.4-.6-.2c-.9-.3-1.5-.7-1.9-1.3-.6-.6-.8-1.1-.8-1.6zm11.1-4.2c-.4 0-.8-.2-1.1-.5-.3-.3-.5-.7-.5-1.1 0-.4.2-.8.5-1.1.3-.3.7-.5 1.1-.5.4 0 .8.2 1.1.5.3.3.5.7.5 1.1 0 .4-.2.8-.5 1.1-.3.4-.7.5-1.1.5zm1.5 1.4v9.8h-2.9v-9.8h2.9zm9.9 3.8V26h-2.8v-6.1c0-.5-.1-.9-.4-1.1l-.9-.3-.9.3c-.2.2-.4.6-.4 1.1v6.2h-2.9v-9.8h2.9v1h.1l1-.8c.4-.2.9-.3 1.5-.3 1.2 0 2 .5 2.4 1.4h.1c.3-.4.6-.7 1.1-1a3 3 0 011.6-.4c.6 0 1.1.1 1.5.4s.8.6 1.1 1.2.4 1.3.4 2.3v6.1H31v-6.1c0-.6-.1-1-.4-1.2-.2-.2-.5-.3-.9-.3s-.7.1-.9.4c-.2-.1-.3.3-.3.9zm7.1 9.7V16.1h2.9v1h.1c.2-.4.4-.7.8-.9a3.5 3.5 0 013.2.2c.6.4 1 .9 1.4 1.7.4.7.5 1.7.5 2.8 0 1.1-.2 2-.5 2.8s-.8 1.3-1.4 1.7a3.3 3.3 0 01-3.3.3c-.4-.2-.7-.5-.8-.9h-.1v4.7h-2.8zm6.2-8.6c0-.9-.2-1.5-.5-2s-.8-.7-1.4-.7c-.5 0-.8.1-1.1.4s-.4.6-.5 1l-.2 1.4.2 1.4.5 1c.3.2.6.4 1.1.4.6 0 1.1-.2 1.4-.7s.5-1.3.5-2.2zm7.1-8.1V26H46V12.9h2.9zM55 16c1.4 0 2.4.4 3.3 1.2.8.8 1.2 1.9 1.2 3.4v1.2H53c.1.6.3 1 .6 1.4s.8.5 1.4.5l.9-.2.5-.5.3-.6 2.6.7c-.1.4-.3.9-.7 1.3-.3.5-.8.8-1.4 1.2-.6.3-1.4.5-2.3.5-1 0-1.9-.2-2.6-.6-.7-.4-1.3-1-1.7-1.7-.4-.7-.6-1.6-.6-2.6s.2-1.9.6-2.7a4 4 0 011.6-1.8c.9-.5 1.8-.7 2.8-.7zm-.1 2.3c-.5 0-.9.1-1.2.4-.3.3-.5.7-.7 1.2h3.6c0-.5-.2-.8-.5-1.2-.2-.2-.6-.4-1.2-.4z"/>
      <path id="super" className="st0" d="M.3 2.9c0-.6.2-1.1.6-1.5s.9-.8 1.5-1S3.6 0 4.3 0s1.4.1 2 .4 1 .6 1.4 1.1c.3.4.5.9.6 1.5l-2.6.4-.4-.7c-.2-.2-.5-.4-.8-.4l-.8.1c-.3.2-.4.3-.4.6s.1.4.4.5l1 .3.6.2c1 .3 1.7.8 2.2 1.4.5.5.7 1.1.7 1.8 0 .6-.2 1.1-.5 1.5-.3.4-.7.8-1.3 1s-1.3.4-2 .4c-.8 0-1.5-.1-2.1-.4-.6-.2-1.2-.6-1.6-1.1-.3-.4-.6-1-.7-1.7l2.7-.4.4.8c.2.2.5.4 1 .4l.9-.1c.2-.1.4-.3.4-.5 0-.3-.2-.5-.6-.6l-.4-.2-1-.4-.6-.2C1.9 5.4 1.2 5 .9 4.5S.3 3.4.3 2.9zm15.2 2.4V.1h2.9v9.8h-2.7v-1h-.1c-.3.4-.6.6-1.1.9a4 4 0 01-1.5.3 3 3 0 01-1.6-.4c-.5-.2-.9-.6-1.2-1.2-.3-.5-.5-1.3-.5-2.2V.1h2.9v6c0 .5.1.9.4 1.2.3.3.6.4 1 .4.5 0 .9-.2 1.1-.7.3-.4.4-1 .4-1.7zm4.6 8.3V.1H23v1h.1c.2-.4.4-.7.8-.9l1.4-.2c.7 0 1.3.2 1.8.5s1 .9 1.4 1.7c.4.8.6 1.7.6 2.8 0 1.1-.2 2-.5 2.8-.3.8-.8 1.3-1.4 1.7a3.3 3.3 0 01-3.3.3c-.4-.2-.7-.5-.8-.9H23v4.7h-2.9zM26.4 5c0-.9-.2-1.5-.5-2s-.8-.7-1.4-.7c-.5 0-.8.1-1.1.4-.3.2-.4.6-.5 1l-.2 1.4.2 1.4.5 1c.3.2.6.4 1.1.4.6 0 1.1-.2 1.4-.7s.5-1.3.5-2.2zm8.6 5.1c-1 0-1.9-.2-2.6-.6-.7-.4-1.3-1-1.7-1.7-.4-.7-.6-1.6-.6-2.6s.2-1.9.6-2.7c.4-.8.9-1.4 1.6-1.8s1.6-.7 2.6-.7c1.4 0 2.4.4 3.3 1.2.8.8 1.2 2 1.2 3.4v1.2H33c.1.6.3 1 .6 1.4.3.3.8.5 1.4.5l.9-.2.5-.5.3-.6 2.6.7c-.1.4-.3.9-.7 1.3-.3.5-.8.8-1.4 1.2s-1.3.5-2.2.5zm-.1-7.8c-.5 0-.9.1-1.2.4s-.5.7-.7 1.3h3.6c0-.5-.2-.8-.5-1.2-.2-.3-.6-.5-1.2-.5zM46.1.1v2.7h-.5-.1c-.5 0-1 .1-1.3.4-.3.3-.5.6-.5 1.1V10h-2.9V.1h2.9v1.3h.1c.1-.5.4-.9.8-1.1.2-.2.6-.3 1-.3h.2l.3.1z"/>
    </g>
  </g>
</svg>
